<svg xmlns="http://www.w3.org/2000/svg" viewBox="0 0 720 256"><g transform="translate(16 32) scale(.75)"><path stroke="#000" stroke-width="28" stroke-linecap="round" stroke-linejoin="round" fill="none" d="M64 216V40h56a44 44 0 0 1 0 88H64M112 128l44 88 44-56"/></g><g transform="translate(240 0)"><path stroke="#000" stroke-width="24" stroke-linecap="round" stroke-linejoin="round" fill="none" d="M40 180V100M40 140q0-40 40-40M120 180V100M198 110q-12-12-30-10q-18 2-18 18q0 16 24 20q24 4 24 22q0 18-22 20q-18 2-30-10M236 180V40M288 100l-50 48M256 130l36 50M386 100v80"/><circle cx="346" cy="140" r="40" stroke="#000" stroke-width="24" stroke-linecap="round" stroke-linejoin="round" fill="none"/><circle cx="120" cy="62" r="15" fill="#000"/></g></svg>
